TITLE:   PLATES.001  REDACTED V     C        11:16:51:12 11:17:34:24 01:00:00:00 01:00:43:12* FROM CLIP NAME:  REDACTED2_CM01_FLASHCINE1.MOV002  REDACTED V     C        03:09:00:13 03:09:55:19 01:00:43:12 01:01:38:18M2   REDACTED       025.0                03:09:00:13* FROM CLIP NAME:  REDACTED2_CM03_FLASHCINE19.MOV003  REDACTED V     C        22:11:38:02 22:12:45:02 01:01:38:18 01:02:45:18M2   REDACTED       025.0                22:11:38:02* FROM CLIP NAME:  REDACTED2_CM03_FLASHCINE5.MOV004  REDACTED V     C        15:24:04:10 15:25:09:07 01:02:45:18 01:03:50:15M2   REDACTED       025.0                15:24:04:10* FROM CLIP NAME:  REDACTED2_CM02_FLASHCINE19.MOV005  REDACTED V     C        12:14:28:01 12:15:30:09 01:03:50:15 01:04:52:23M2   REDACTED       025.0                12:14:28:01* FROM CLIP NAME:  REDACTED2_CM03_FLASHCINE22.MOV006  REDACTED V     C        12:44:33:09 12:45:02:23 01:04:52:23 01:05:22:12M2   REDACTED       025.0                12:44:33:09* FROM CLIP NAME:  REDACTED2_CM01_FLASHCINE28.MOV007  REDACTED V     C        01:38:02:01 01:38:59:16 01:05:22:12 01:06:20:02M2   REDACTED       025.0                01:38:02:01* FROM CLIP NAME:  REDACTED2_CM03_FLASHCINE10.MOV008  REDACTED V     C        06:18:01:10 06:18:55:09 01:06:20:02 01:07:14:01M2   REDACTED       025.0                06:18:01:10* FROM CLIP NAME:  REDACTED2_CM02_FLASHCINE12.MOV009  REDACTED V     C        10:52:32:06 10:53:24:20 01:07:14:01 01:08:06:15M2   REDACTED       025.0                10:52:32:06* FROM CLIP NAME:  REDACTED2_CM04_FLASHCINE4.MOV010  REDACTED V     C        02:38:28:09 02:39:19:14 01:08:06:15 01:08:57:20M2   REDACTED       025.0                02:38:28:09* FROM CLIP NAME:  REDACTED2_CM02_FLASHCINE18.MOV011  REDACTED V     C        12:00:04:02 12:00:54:12 01:08:57:20 01:09:48:05M2   REDACTED       025.0                12:00:04:02* FROM CLIP NAME:  REDACTED2_CM04_FLASHCINE8.MOV012  REDACTED V     C        00:22:48:16 00:23:38:21 01:09:48:05 01:10:38:10M2   REDACTED       025.0                00:22:48:16* FROM CLIP NAME:  REDACTED2_CM02_FLASHCINE25.MOV013  REDACTED V     C        21:50:29:20 21:51:17:22 01:10:38:10 01:11:26:12M2   REDACTED       025.0                21:50:29:20* FROM CLIP NAME:  REDACTED2_CM02_FLASHCINE26.MOV014  REDACTED V     C        02:54:03:12 02:54:51:08 01:11:26:12 01:12:14:08M2   REDACTED       025.0                02:54:03:12* FROM CLIP NAME:  REDACTED2_CM05_FLASHCINE9.MOV015  REDACTED V     C        00:47:34:23 00:48:22:04 01:12:14:08 01:13:01:14M2   REDACTED       025.0                00:47:34:23* FROM CLIP NAME:  REDACTED2_CM03_FLASHCINE26.MOV016  REDACTED V     C        03:54:07:24 03:54:48:08 01:13:01:14 01:13:41:23M2   REDACTED       025.0                03:54:07:24* FROM CLIP NAME:  REDACTED2_CM05_FLASHCINE12.MOV017  REDACTED V     C        07:32:14:00 07:32:57:24 01:13:41:23 01:14:25:22M2   REDACTED       025.0                07:32:14:00* FROM CLIP NAME:  REDACTED2_CM03_FLASHCINE13.MOV018  REDACTED V     C        05:06:04:06 05:06:46:17 01:14:25:22 01:15:08:08M2   REDACTED       025.0                05:06:04:06* FROM CLIP NAME:  REDACTED2_CM01_FLASHCINE31.MOV019  REDACTED V     C        00:58:04:15 00:58:20:16 01:15:08:08 01:15:24:09M2   REDACTED       025.0                00:58:04:15* FROM CLIP NAME:  REDACTED2_CM03_FLASHCINE33.MOV020  REDACTED V     C        00:04:48:12 00:05:30:17 01:15:24:09 01:16:06:14M2   REDACTED       025.0                00:04:48:12* FROM CLIP NAME:  REDACTED2_CM03_FLASHCINE31.MOV021  REDACTED V     C        12:47:05:13 12:47:29:15 01:16:06:14 01:16:30:16M2   REDACTED       025.0                12:47:05:13* FROM CLIP NAME:  REDACTED2_CM01_FLASHCINE29.MOV022  REDACTED V     C        00:57:39:09 00:58:03:05 01:16:30:16 01:16:54:12M2   REDACTED       025.0                00:57:39:09* FROM CLIP NAME:  REDACTED2_CM02_FLASHCINE10.MOV023  REDACTED V     C        05:30:02:11 05:30:24:12 01:16:54:12 01:17:16:13M2   REDACTED       025.0                05:30:02:11* FROM CLIP NAME:  REDACTED2_CM01_FLASHCINE30.MOV024  REDACTED V     C        00:16:53:14 00:17:07:17 01:17:16:13 01:17:30:16M2   REDACTED       025.0                00:16:53:14* FROM CLIP NAME:  REDACTED2_CM02_FLASHCINE11.MOV>>> SOURCE REDACTED REDACTED2_CM0 060a2b340101010101010f00-13-00-00-00-{4cb86d99-db6c-000b-060e2b347f7f2a80}>>> SOURCE REDACTED REDACTED2_CM0 060a2b340101010101010f00-13-00-00-00-{4cb5c508-3f63-058b-060e2b347f7f2a80}>>> SOURCE REDACTED REDACTED2_CM0 060a2b340101010101010f00-13-00-00-00-{4cb5c458-8ef5-0588-060e2b347f7f2a80}>>> SOURCE REDACTED REDACTED2_CM0 060a2b340101010101010f00-13-00-00-00-{4cb5c451-7414-0588-060e2b347f7f2a80}>>> SOURCE REDACTED REDACTED2_CM0 060a2b340101010101010f00-13-00-00-00-{4cb5c47d-1ff8-0589-060e2b347f7f2a80}>>> SOURCE REDACTED REDACTED2_CM0 060a2b340101010101010f00-13-00-00-00-{4cb5c454-80d5-0588-060e2b347f7f2a80}>>> SOURCE REDACTED REDACTED2_CM0 060a2b340101010101010f00-13-00-00-00-{4cb5c44a-5713-0588-060e2b347f7f2a80}>>> SOURCE REDACTED REDACTED2_CM0 060a2b340101010101010f00-13-00-00-00-{4cb5c4de-9cb5-058a-060e2b347f7f2a80}>>> SOURCE REDACTED REDACTED2_CM0 060a2b340101010101010f00-13-00-00-00-{4cb5c4c7-424e-058a-060e2b347f7f2a80}>>> SOURCE REDACTED REDACTED2_CM0 060a2b340101010101010f00-13-00-00-00-{4cb5c52c-cc17-058b-060e2b347f7f2a80}>>> SOURCE REDACTED REDACTED2_CM0 060a2b340101010101010f00-13-00-00-00-{4cb5c4b9-0a10-058a-060e2b347f7f2a80}>>> SOURCE REDACTED REDACTED2_CM0 060a2b340101010101010f00-13-00-00-00-{4cb5c4a4-b937-0589-060e2b347f7f2a80}>>> SOURCE REDACTED REDACTED2_CM0 060a2b340101010101010f00-13-00-00-00-{4cb5c536-f2fa-058b-060e2b347f7f2a80}>>> SOURCE REDACTED REDACTED2_CM0 060a2b340101010101010f00-13-00-00-00-{4cb5c500-1f3e-058b-060e2b347f7f2a80}>>> SOURCE REDACTED REDACTED2_CM0 060a2b340101010101010f00-13-00-00-00-{4cb5c489-50c5-0589-060e2b347f7f2a80}>>> SOURCE REDACTED REDACTED2_CM0 060a2b340101010101010f00-13-00-00-00-{4cb5c4e6-b973-058a-060e2b347f7f2a80}>>> SOURCE REDACTED REDACTED2_CM0 060a2b340101010101010f00-13-00-00-00-{4cb5c523-a89e-058b-060e2b347f7f2a80}>>> SOURCE REDACTED REDACTED2_CM0 060a2b340101010101010f00-13-00-00-00-{4cb5c497-84f6-0589-060e2b347f7f2a80}>>> SOURCE REDACTED REDACTED2_CM0 060a2b340101010101010f00-13-00-00-00-{4cb5c471-f10e-0588-060e2b347f7f2a80}>>> SOURCE REDACTED REDACTED2_CM0 060a2b340101010101010f00-13-00-00-00-{4cb5c477-07e6-0589-060e2b347f7f2a80}>>> SOURCE REDACTED REDACTED2_CM0 060a2b340101010101010f00-13-00-00-00-{4cb5c4cf-60df-058a-060e2b347f7f2a80}>>> SOURCE REDACTED REDACTED2_CM0 060a2b340101010101010f00-13-00-00-00-{4cb5c4c0-2572-058a-060e2b347f7f2a80}>>> SOURCE REDACTED REDACTED2_CM0 060a2b340101010101010f00-13-00-00-00-{4cb5c49d-9e91-0589-060e2b347f7f2a80}>>> SOURCE REDACTED REDACTED2_CM0 060a2b340101010101010f00-13-00-00-00-{4cb5c490-6ad0-0589-060e2b347f7f2a80}